<svg version="1.1" viewBox="0.0 0.0 600.0 371.0" fill="none" stroke="none" stroke-linecap="square" stroke-miterlimit="10" width="600" height="371" xmlns:xlink="http://www.w3.org/1999/xlink" xmlns="http://www.w3.org/2000/svg"><path fill="#ffffff" d="M0 0L600.0 0L600.0 371.0L0 371.0L0 0Z" fill-rule="nonzero"/><path stroke="#333333" stroke-width="1.0" stroke-linecap="butt" d="M45.5 300.5L581.5 300.5" fill-rule="nonzero"/><path stroke="#cccccc" stroke-width="1.0" stroke-linecap="butt" d="M45.5 240.5L581.5 240.5" fill-rule="nonzero"/><path stroke="#cccccc" stroke-width="1.0" stroke-linecap="butt" d="M45.5 181.5L581.5 181.5" fill-rule="nonzero"/><path stroke="#cccccc" stroke-width="1.0" stroke-linecap="butt" d="M45.5 121.5L581.5 121.5" fill-rule="nonzero"/><path stroke="#cccccc" stroke-width="1.0" stroke-linecap="butt" d="M45.5 61.5L581.5 61.5" fill-rule="nonzero"/><clipPath id="id_0"><path d="M45.55 61.916668L581.45 61.916668L581.45 300.45L45.55 300.45L45.55 61.916668Z" clip-rule="nonzero"/></clipPath><path stroke="#000000" stroke-width="2.0" stroke-linecap="butt" stroke-opacity="0.0" clip-path="url(#id_0)" d="M111.0 300.0L47.0 300.0L47.0 107.0C47.0 105.89543 47.89543 105.0 49.0 105.0L109.0 105.0C110.10457 105.0 111.0 105.89543 111.0 107.0Z" fill-rule="nonzero"/><path fill="#4285f4" clip-path="url(#id_0)" d="M111.0 300.0L47.0 300.0L47.0 107.0C47.0 105.89543 47.89543 105.0 49.0 105.0L109.0 105.0C110.10457 105.0 111.0 105.89543 111.0 107.0Z" fill-rule="nonzero"/><path stroke="#000000" stroke-width="2.0" stroke-linecap="butt" stroke-opacity="0.0" clip-path="url(#id_0)" d="M178.0 300.0L114.0 300.0L114.0 198.0C114.0 196.89543 114.89543 196.0 116.0 196.0L176.0 196.0C177.10457 196.0 178.0 196.89543 178.0 198.0Z" fill-rule="nonzero"/><path fill="#4285f4" clip-path="url(#id_0)" d="M178.0 300.0L114.0 300.0L114.0 198.0C114.0 196.89543 114.89543 196.0 116.0 196.0L176.0 196.0C177.10457 196.0 178.0 196.89543 178.0 198.0Z" fill-rule="nonzero"/><path stroke="#000000" stroke-width="2.0" stroke-linecap="butt" stroke-opacity="0.0" clip-path="url(#id_0)" d="M245.0 300.0L181.0 300.0L181.0 238.0C181.0 236.89543 181.89543 236.0 183.0 236.0L243.0 236.0C244.10457 236.0 245.0 236.89543 245.0 238.0Z" fill-rule="nonzero"/><path fill="#4285f4" clip-path="url(#id_0)" d="M245.0 300.0L181.0 300.0L181.0 238.0C181.0 236.89543 181.89543 236.0 183.0 236.0L243.0 236.0C244.10457 236.0 245.0 236.89543 245.0 238.0Z" fill-rule="nonzero"/><path stroke="#000000" stroke-width="2.0" stroke-linecap="butt" stroke-opacity="0.0" clip-path="url(#id_0)" d="M312.0 300.0L248.0 300.0L248.0 270.0C248.0 268.89542 248.89543 268.0 250.0 268.0L310.0 268.0C311.10458 268.0 312.0 268.89542 312.0 270.0Z" fill-rule="nonzero"/><path fill="#4285f4" clip-path="url(#id_0)" d="M312.0 300.0L248.0 300.0L248.0 270.0C248.0 268.89542 248.89543 268.0 250.0 268.0L310.0 268.0C311.10458 268.0 312.0 268.89542 312.0 270.0Z" fill-rule="nonzero"/><path stroke="#000000" stroke-width="2.0" stroke-linecap="butt" stroke-opacity="0.0" clip-path="url(#id_0)" d="M379.0 300.0L315.0 300.0L315.0 289.0C315.0 287.89542 315.89542 287.0 317.0 287.0L377.0 287.0C378.10458 287.0 379.0 287.89542 379.0 289.0Z" fill-rule="nonzero"/><path fill="#4285f4" clip-path="url(#id_0)" d="M379.0 300.0L315.0 300.0L315.0 289.0C315.0 287.89542 315.89542 287.0 317.0 287.0L377.0 287.0C378.10458 287.0 379.0 287.89542 379.0 289.0Z" fill-rule="nonzero"/><path stroke="#000000" stroke-width="2.0" stroke-linecap="butt" stroke-opacity="0.0" clip-path="url(#id_0)" d="M446.0 300.0L382.0 300.0L382.0 298.0C382.0 296.89542 382.89542 296.0 384.0 296.0L444.0 296.0C445.10458 296.0 446.0 296.89542 446.0 298.0Z" fill-rule="nonzero"/><path fill="#4285f4" clip-path="url(#id_0)" d="M446.0 300.0L382.0 300.0L382.0 298.0C382.0 296.89542 382.89542 296.0 384.0 296.0L444.0 296.0C445.10458 296.0 446.0 296.89542 446.0 298.0Z" fill-rule="nonzero"/><path stroke="#000000" stroke-width="2.0" stroke-linecap="butt" stroke-opacity="0.0" clip-path="url(#id_0)" d="M513.0 300.0L449.0 300.0L449.0 300.0L513.0 300.0Z" fill-rule="nonzero"/><path fill="#4285f4" clip-path="url(#id_0)" d="M513.0 300.0L449.0 300.0L449.0 300.0L513.0 300.0Z" fill-rule="nonzero"/><path stroke="#000000" stroke-width="2.0" stroke-linecap="butt" stroke-opacity="0.0" clip-path="url(#id_0)" d="M580.0 300.0L516.0 300.0L516.0 299.5C516.0 299.22385 516.2239 299.0 516.5 299.0L579.5 299.0C579.7761 299.0 580.0 299.22385 580.0 299.5Z" fill-rule="nonzero"/><path fill="#4285f4" clip-path="url(#id_0)" d="M580.0 300.0L516.0 300.0L516.0 299.5C516.0 299.22385 516.2239 299.0 516.5 299.0L579.5 299.0C579.7761 299.0 580.0 299.22385 580.0 299.5Z" fill-rule="nonzero"/><path fill="#000000" d="M294.92188 349.45L294.92188 340.85626L298.17188 340.85626Q299.01562 340.85626 299.46875 340.9344Q300.10938 341.04376 300.53125 341.34064Q300.96875 341.6375 301.21875 342.16876Q301.48438 342.7 301.48438 343.34064Q301.48438 344.4344 300.78125 345.2Q300.09375 345.95 298.26562 345.95L296.0625 345.95L296.0625 349.45L294.92188 349.45ZM296.0625 344.95L298.28125 344.95Q299.39062 344.95 299.84375 344.54376Q300.3125 344.1219 300.3125 343.3719Q300.3125 342.84064 300.03125 342.46564Q299.76562 342.075 299.32812 341.95Q299.03125 341.8719 298.26562 341.8719L296.0625 341.8719L296.0625 344.95ZM307.04688 347.45L308.14062 347.575Q307.89062 348.52814 307.1875 349.0594Q306.48438 349.59064 305.40625 349.59064Q304.04688 349.59064 303.23438 348.7469Q302.4375 347.90314 302.4375 346.3875Q302.4375 344.825 303.25 343.96564Q304.0625 343.09064 305.34375 343.09064Q306.59375 343.09064 307.375 343.9344Q308.17188 344.77814 308.17188 346.325Q308.17188 346.41876 308.17188 346.60626L303.53125 346.60626Q303.59375 347.6375 304.10938 348.1844Q304.625 348.71564 305.40625 348.71564Q305.98438 348.71564 306.39062 348.41876Q306.8125 348.10626 307.04688 347.45ZM303.59375 345.7469L307.0625 345.7469Q307.0 344.95 306.67188 344.5594Q306.15625 343.95 305.35938 343.95Q304.625 343.95 304.125 344.4344Q303.64062 344.91876 303.59375 345.7469ZM309.40625 346.34064Q309.40625 344.60626 310.35938 343.77814Q311.15625 343.09064 312.3125 343.09064Q313.59375 343.09064 314.40625 343.9344Q315.23438 344.7625 315.23438 346.2469Q315.23438 347.45 314.875 348.1375Q314.51562 348.825 313.8125 349.21564Q313.125 349.59064 312.3125 349.59064Q311.01562 349.59064 310.20312 348.7625Q309.40625 347.91876 309.40625 346.34064ZM310.48438 346.34064Q310.48438 347.52814 311.0 348.1219Q311.53125 348.71564 312.3125 348.71564Q313.10938 348.71564 313.625 348.1219Q314.14062 347.52814 314.14062 346.3094Q314.14062 345.15314 313.60938 344.5594Q313.09375 343.96564 312.3125 343.96564Q311.53125 343.96564 311.0 344.5594Q310.48438 345.1375 310.48438 346.34064ZM316.79688 351.84064L316.79688 343.23126L317.75 343.23126L317.75 344.02814Q318.09375 343.5594 318.51562 343.325Q318.95312 343.09064 319.5625 343.09064Q320.35938 343.09064 320.96875 343.4969Q321.57812 343.90314 321.875 344.65314Q322.1875 345.40314 322.1875 346.29376Q322.1875 347.2469 321.84375 348.0125Q321.51562 348.77814 320.85938 349.1844Q320.20312 349.59064 319.48438 349.59064Q318.95312 349.59064 318.53125 349.3719Q318.10938 349.1375 317.84375 348.8094L317.84375 351.84064L316.79688 351.84064ZM317.75 346.3719Q317.75 347.575 318.23438 348.15314Q318.71875 348.71564 319.40625 348.71564Q320.10938 348.71564 320.60938 348.1219Q321.10938 347.52814 321.10938 346.27814Q321.10938 345.09064 320.625 344.5125Q320.14062 343.91876 319.45312 343.91876Q318.78125 343.91876 318.26562 344.54376Q317.75 345.16876 317.75 346.3719ZM323.76562 349.45L323.76562 340.85626L324.82812 340.85626L324.82812 349.45L323.76562 349.45ZM331.04688 347.45L332.14062 347.575Q331.89062 348.52814 331.1875 349.0594Q330.48438 349.59064 329.40625 349.59064Q328.04688 349.59064 327.23438 348.7469Q326.4375 347.90314 326.4375 346.3875Q326.4375 344.825 327.25 343.96564Q328.0625 343.09064 329.34375 343.09064Q330.59375 343.09064 331.375 343.9344Q332.17188 344.77814 332.17188 346.325Q332.17188 346.41876 332.17188 346.60626L327.53125 346.60626Q327.59375 347.6375 328.10938 348.1844Q328.625 348.71564 329.40625 348.71564Q329.98438 348.71564 330.39062 348.41876Q330.8125 348.10626 331.04688 347.45ZM327.59375 345.7469L331.0625 345.7469Q331.0 344.95 330.67188 344.5594Q330.15625 343.95 329.35938 343.95Q328.625 343.95 328.125 344.4344Q327.64062 344.91876 327.59375 345.7469Z" fill-rule="nonzero"/><path fill="#000000" d="M33.05 300.21564Q33.05 298.6844 33.3625 297.7625Q33.675 296.825 34.284374 296.325Q34.909374 295.825 35.846874 295.825Q36.534374 295.825 37.05 296.10626Q37.58125 296.3875 37.925 296.91876Q38.26875 297.4344 38.45625 298.1844Q38.64375 298.9344 38.64375 300.21564Q38.64375 301.73126 38.33125 302.65314Q38.034374 303.575 37.409374 304.09064Q36.8 304.59064 35.846874 304.59064Q34.6125 304.59064 33.89375 303.7Q33.05 302.6375 33.05 300.21564ZM34.128124 300.21564Q34.128124 302.325 34.628124 303.02814Q35.128124 303.73126 35.846874 303.73126Q36.58125 303.73126 37.065624 303.02814Q37.565624 302.325 37.565624 300.21564Q37.565624 298.09064 37.065624 297.40314Q36.58125 296.7 35.83125 296.7Q35.1125 296.7 34.675 297.3094Q34.128124 298.09064 34.128124 300.21564Z" fill-rule="nonzero"/><path fill="#000000" d="M23.01875 244.81667L21.971874 244.81667L21.971874 238.09792Q21.58125 238.45729 20.95625 238.83229Q20.346874 239.19167 19.8625 239.36354L19.8625 238.34792Q20.7375 237.92604 21.39375 237.34792Q22.065624 236.75417 22.346874 236.19167L23.01875 236.19167L23.01875 244.81667ZM26.05 240.58229Q26.05 239.05104 26.3625 238.12917Q26.675 237.19167 27.284374 236.69167Q27.909374 236.19167 28.846874 236.19167Q29.534374 236.19167 30.05 236.47292Q30.58125 236.75417 30.925 237.28542Q31.26875 237.80104 31.45625 238.55104Q31.64375 239.30104 31.64375 240.58229Q31.64375 242.09792 31.33125 243.01979Q31.034374 243.94167 30.409374 244.45729Q29.8 244.95729 28.846874 244.95729Q27.6125 244.95729 26.89375 244.06667Q26.05 243.00417 26.05 240.58229ZM27.128124 240.58229Q27.128124 242.69167 27.628124 243.39479Q28.128124 244.09792 28.846874 244.09792Q29.58125 244.09792 30.065624 243.39479Q30.565624 242.69167 30.565624 240.58229Q30.565624 238.45729 30.065624 237.76979Q29.58125 237.06667 28.83125 237.06667Q28.1125 237.06667 27.675 237.67604Q27.128124 238.45729 27.128124 240.58229ZM33.05 240.58229Q33.05 239.05104 33.3625 238.12917Q33.675 237.19167 34.284374 236.69167Q34.909374 236.19167 35.846874 236.19167Q36.534374 236.19167 37.05 236.47292Q37.58125 236.75417 37.925 237.28542Q38.26875 237.80104 38.45625 238.55104Q38.64375 239.30104 38.64375 240.58229Q38.64375 242.09792 38.33125 243.01979Q38.034374 243.94167 37.409374 244.45729Q36.8 244.95729 35.846874 244.95729Q34.6125 244.95729 33.89375 244.06667Q33.05 243.00417 33.05 240.58229ZM34.128124 240.58229Q34.128124 242.69167 34.628124 243.39479Q35.128124 244.09792 35.846874 244.09792Q36.58125 244.09792 37.065624 243.39479Q37.565624 242.69167 37.565624 240.58229Q37.565624 238.45729 37.065624 237.76979Q36.58125 237.06667 35.83125 237.06667Q35.1125 237.06667 34.675 237.67604Q34.128124 238.45729 34.128124 240.58229Z" fill-rule="nonzero"/><path fill="#000000" d="M24.596874 184.16771L24.596874 185.18333L18.909374 185.18333Q18.909374 184.80833 19.034374 184.44896Q19.253124 183.87083 19.721874 183.30833Q20.20625 182.74583 21.1125 182.01146Q22.51875 180.85521 23.003124 180.18333Q23.503124 179.51146 23.503124 178.91771Q23.503124 178.29271 23.05 177.87083Q22.596874 177.43333 21.878124 177.43333Q21.1125 177.43333 20.659374 177.88646Q20.20625 178.33958 20.190624 179.15208L19.1125 179.04271Q19.221874 177.82396 19.940624 177.19896Q20.675 176.55833 21.909374 176.55833Q23.14375 176.55833 23.8625 177.24583Q24.58125 177.93333 24.58125 178.94896Q24.58125 179.46458 24.3625 179.96458Q24.159374 180.44896 23.659374 181.01146Q23.175 181.55833 22.05 182.51146Q21.096874 183.30833 20.815624 183.60521Q20.55 183.88646 20.378124 184.16771L24.596874 184.16771ZM26.05 180.94896Q26.05 179.41771 26.3625 178.49583Q26.675 177.55833 27.284374 177.05833Q27.909374 176.55833 28.846874 176.55833Q29.534374 176.55833 30.05 176.83958Q30.58125 177.12083 30.925 177.65208Q31.26875 178.16771 31.45625 178.91771Q31.64375 179.66771 31.64375 180.94896Q31.64375 182.46458 31.33125 183.38646Q31.034374 184.30833 30.409374 184.82396Q29.8 185.32396 28.846874 185.32396Q27.6125 185.32396 26.89375 184.43333Q26.05 183.37083 26.05 180.94896ZM27.128124 180.94896Q27.128124 183.05833 27.628124 183.76146Q28.128124 184.46458 28.846874 184.46458Q29.58125 184.46458 30.065624 183.76146Q30.565624 183.05833 30.565624 180.94896Q30.565624 178.82396 30.065624 178.13646Q29.58125 177.43333 28.83125 177.43333Q28.1125 177.43333 27.675 178.04271Q27.128124 178.82396 27.128124 180.94896ZM33.05 180.94896Q33.05 179.41771 33.3625 178.49583Q33.675 177.55833 34.284374 177.05833Q34.909374 176.55833 35.846874 176.55833Q36.534374 176.55833 37.05 176.83958Q37.58125 177.12083 37.925 177.65208Q38.26875 178.16771 38.45625 178.91771Q38.64375 179.66771 38.64375 180.94896Q38.64375 182.46458 38.33125 183.38646Q38.034374 184.30833 37.409374 184.82396Q36.8 185.32396 35.846874 185.32396Q34.6125 185.32396 33.89375 184.43333Q33.05 183.37083 33.05 180.94896ZM34.128124 180.94896Q34.128124 183.05833 34.628124 183.76146Q35.128124 184.46458 35.846874 184.46458Q36.58125 184.46458 37.065624 183.76146Q37.565624 183.05833 37.565624 180.94896Q37.565624 178.82396 37.065624 178.13646Q36.58125 177.43333 35.83125 177.43333Q35.1125 177.43333 34.675 178.04271Q34.128124 178.82396 34.128124 180.94896Z" fill-rule="nonzero"/><path fill="#000000" d="M19.05 123.28438L20.1125 123.14375Q20.284374 124.03438 20.721874 124.44063Q21.159374 124.83125 21.784374 124.83125Q22.534374 124.83125 23.05 124.31563Q23.565624 123.8 23.565624 123.03438Q23.565624 122.31563 23.08125 121.84688Q22.6125 121.3625 21.878124 121.3625Q21.58125 121.3625 21.128124 121.4875L21.253124 120.55Q21.3625 120.56563 21.425 120.56563Q22.096874 120.56563 22.628124 120.22188Q23.175 119.8625 23.175 119.12813Q23.175 118.55 22.784374 118.175Q22.39375 117.78438 21.76875 117.78438Q21.159374 117.78438 20.7375 118.175Q20.33125 118.56563 20.221874 119.33125L19.159374 119.14375Q19.346874 118.09688 20.034374 117.51875Q20.721874 116.925 21.7375 116.925Q22.440624 116.925 23.034374 117.2375Q23.628124 117.53438 23.940624 118.05Q24.253124 118.56563 24.253124 119.15938Q24.253124 119.70625 23.95625 120.175Q23.659374 120.62813 23.08125 120.89375Q23.83125 121.06563 24.253124 121.62813Q24.675 122.175 24.675 123.01875Q24.675 124.14375 23.846874 124.925Q23.034374 125.70625 21.784374 125.70625Q20.659374 125.70625 19.909374 125.03438Q19.159374 124.34688 19.05 123.28438ZM26.05 121.31563Q26.05 119.78438 26.3625 118.8625Q26.675 117.925 27.284374 117.425Q27.909374 116.925 28.846874 116.925Q29.534374 116.925 30.05 117.20625Q30.58125 117.4875 30.925 118.01875Q31.26875 118.53438 31.45625 119.28438Q31.64375 120.03438 31.64375 121.31563Q31.64375 122.83125 31.33125 123.75313Q31.034374 124.675 30.409374 125.19063Q29.8 125.69063 28.846874 125.69063Q27.6125 125.69063 26.89375 124.8Q26.05 123.7375 26.05 121.31563ZM27.128124 121.31563Q27.128124 123.425 27.628124 124.12813Q28.128124 124.83125 28.846874 124.83125Q29.58125 124.83125 30.065624 124.12813Q30.565624 123.425 30.565624 121.31563Q30.565624 119.19063 30.065624 118.50313Q29.58125 117.8 28.83125 117.8Q28.1125 117.8 27.675 118.40938Q27.128124 119.19063 27.128124 121.31563ZM33.05 121.31563Q33.05 119.78438 33.3625 118.8625Q33.675 117.925 34.284374 117.425Q34.909374 116.925 35.846874 116.925Q36.534374 116.925 37.05 117.20625Q37.58125 117.4875 37.925 118.01875Q38.26875 118.53438 38.45625 119.28438Q38.64375 120.03438 38.64375 121.31563Q38.64375 122.83125 38.33125 123.75313Q38.034374 124.675 37.409374 125.19063Q36.8 125.69063 35.846874 125.69063Q34.6125 125.69063 33.89375 124.8Q33.05 123.7375 33.05 121.31563ZM34.128124 121.31563Q34.128124 123.425 34.628124 124.12813Q35.128124 124.83125 35.846874 124.83125Q36.58125 124.83125 37.065624 124.12813Q37.565624 123.425 37.565624 121.31563Q37.565624 119.19063 37.065624 118.50313Q36.58125 117.8 35.83125 117.8Q35.1125 117.8 34.675 118.40938Q34.128124 119.19063 34.128124 121.31563Z" fill-rule="nonzero"/><path fill="#000000" d="M22.425 65.916664L22.425 63.854164L18.70625 63.854164L18.70625 62.885414L22.628124 57.322914L23.4875 57.322914L23.4875 62.885414L24.64375 62.885414L24.64375 63.854164L23.4875 63.854164L23.4875 65.916664L22.425 65.916664ZM22.425 62.885414L22.425 59.02604L19.7375 62.885414L22.425 62.885414ZM26.05 61.68229Q26.05 60.15104 26.3625 59.229164Q26.675 58.291664 27.284374 57.791664Q27.909374 57.291664 28.846874 57.291664Q29.534374 57.291664 30.05 57.572914Q30.58125 57.854164 30.925 58.385414Q31.26875 58.90104 31.45625 59.65104Q31.64375 60.40104 31.64375 61.68229Q31.64375 63.197914 31.33125 64.11979Q31.034374 65.041664 30.409374 65.55729Q29.8 66.05729 28.846874 66.05729Q27.6125 66.05729 26.89375 65.166664Q26.05 64.104164 26.05 61.68229ZM27.128124 61.68229Q27.128124 63.791664 27.628124 64.49479Q28.128124 65.197914 28.846874 65.197914Q29.58125 65.197914 30.065624 64.49479Q30.565624 63.791664 30.565624 61.68229Q30.565624 59.55729 30.065624 58.86979Q29.58125 58.166664 28.83125 58.166664Q28.1125 58.166664 27.675 58.77604Q27.128124 59.55729 27.128124 61.68229ZM33.05 61.68229Q33.05 60.15104 33.3625 59.229164Q33.675 58.291664 34.284374 57.791664Q34.909374 57.291664 35.846874 57.291664Q36.534374 57.291664 37.05 57.572914Q37.58125 57.854164 37.925 58.385414Q38.26875 58.90104 38.45625 59.65104Q38.64375 60.40104 38.64375 61.68229Q38.64375 63.197914 38.33125 64.11979Q38.034374 65.041664 37.409374 65.55729Q36.8 66.05729 35.846874 66.05729Q34.6125 66.05729 33.89375 65.166664Q33.05 64.104164 33.05 61.68229ZM34.128124 61.68229Q34.128124 63.791664 34.628124 64.49479Q35.128124 65.197914 35.846874 65.197914Q36.58125 65.197914 37.065624 64.49479Q37.565624 63.791664 37.565624 61.68229Q37.565624 59.55729 37.065624 58.86979Q36.58125 58.166664 35.83125 58.166664Q35.1125 58.166664 34.675 58.77604Q34.128124 59.55729 34.128124 61.68229Z" fill-rule="nonzero"/><path fill="#000000" d="M34.05 313.21564Q34.05 311.6844 34.3625 310.7625Q34.675 309.825 35.284374 309.325Q35.909374 308.825 36.846874 308.825Q37.534374 308.825 38.05 309.10626Q38.58125 309.3875 38.925 309.91876Q39.26875 310.4344 39.45625 311.1844Q39.64375 311.9344 39.64375 313.21564Q39.64375 314.73126 39.33125 315.65314Q39.034374 316.575 38.409374 317.09064Q37.8 317.59064 36.846874 317.59064Q35.6125 317.59064 34.89375 316.7Q34.05 315.6375 34.05 313.21564ZM35.128124 313.21564Q35.128124 315.325 35.628124 316.02814Q36.128124 316.73126 36.846874 316.73126Q37.58125 316.73126 38.065624 316.02814Q38.565624 315.325 38.565624 313.21564Q38.565624 311.09064 38.065624 310.40314Q37.58125 309.7 36.83125 309.7Q36.1125 309.7 35.675 310.3094Q35.128124 311.09064 35.128124 313.21564ZM41.6125 317.45L41.6125 316.2469L42.815624 316.2469L42.815624 317.45Q42.815624 318.10626 42.58125 318.5125Q42.346874 318.9344 41.846874 319.15314L41.55 318.7Q41.878124 318.5594 42.034374 318.2625Q42.190624 317.98126 42.221874 317.45L41.6125 317.45ZM44.05 313.21564Q44.05 311.6844 44.3625 310.7625Q44.675 309.825 45.284374 309.325Q45.909374 308.825 46.846874 308.825Q47.534374 308.825 48.05 309.10626Q48.58125 309.3875 48.925 309.91876Q49.26875 310.4344 49.45625 311.1844Q49.64375 311.9344 49.64375 313.21564Q49.64375 314.73126 49.33125 315.65314Q49.034374 316.575 48.409374 317.09064Q47.8 317.59064 46.846874 317.59064Q45.6125 317.59064 44.89375 316.7Q44.05 315.6375 44.05 313.21564ZM45.128124 313.21564Q45.128124 315.325 45.628124 316.02814Q46.128124 316.73126 46.846874 316.73126Q47.58125 316.73126 48.065624 316.02814Q48.565624 315.325 48.565624 313.21564Q48.565624 311.09064 48.065624 310.40314Q47.58125 309.7 46.83125 309.7Q46.1125 309.7 45.675 310.3094Q45.128124 311.09064 45.128124 313.21564ZM51.05 313.21564Q51.05 311.6844 51.3625 310.7625Q51.675 309.825 52.284374 309.325Q52.909374 308.825 53.846874 308.825Q54.534374 308.825 55.05 309.10626Q55.58125 309.3875 55.925 309.91876Q56.26875 310.4344 56.45625 311.1844Q56.64375 311.9344 56.64375 313.21564Q56.64375 314.73126 56.33125 315.65314Q56.034374 316.575 55.409374 317.09064Q54.8 317.59064 53.846874 317.59064Q52.6125 317.59064 51.89375 316.7Q51.05 315.6375 51.05 313.21564ZM52.128124 313.21564Q52.128124 315.325 52.628124 316.02814Q53.128124 316.73126 53.846874 316.73126Q54.58125 316.73126 55.065624 316.02814Q55.565624 315.325 55.565624 313.21564Q55.565624 311.09064 55.065624 310.40314Q54.58125 309.7 53.83125 309.7Q53.1125 309.7 52.675 310.3094Q52.128124 311.09064 52.128124 313.21564Z" fill-rule="nonzero"/><path fill="#000000" d="M105.00625 317.45L103.95937 317.45L103.95937 310.73126Q103.56875 311.09064 102.94375 311.46564Q102.33437 311.825 101.85 311.9969L101.85 310.98126Q102.725 310.5594 103.38125 309.98126Q104.05312 309.3875 104.33437 308.825L105.00625 308.825L105.00625 317.45ZM108.6 317.45L108.6 316.2469L109.80312 316.2469L109.80312 317.45Q109.80312 318.10626 109.56875 318.5125Q109.33437 318.9344 108.83437 319.15314L108.5375 318.7Q108.86562 318.5594 109.02187 318.2625Q109.17812 317.98126 109.20937 317.45L108.6 317.45ZM111.0375 313.21564Q111.0375 311.6844 111.35 310.7625Q111.6625 309.825 112.27187 309.325Q112.89687 308.825 113.83437 308.825Q114.52187 308.825 115.0375 309.10626Q115.56875 309.3875 115.9125 309.91876Q116.25625 310.4344 116.44375 311.1844Q116.63125 311.9344 116.63125 313.21564Q116.63125 314.73126 116.31875 315.65314Q116.02187 316.575 115.39687 317.09064Q114.7875 317.59064 113.83437 317.59064Q112.6 317.59064 111.88125 316.7Q111.0375 315.6375 111.0375 313.21564ZM112.11562 313.21564Q112.11562 315.325 112.61562 316.02814Q113.11562 316.73126 113.83437 316.73126Q114.56875 316.73126 115.05312 316.02814Q115.55312 315.325 115.55312 313.21564Q115.55312 311.09064 115.05312 310.40314Q114.56875 309.7 113.81875 309.7Q113.1 309.7 112.6625 310.3094Q112.11562 311.09064 112.11562 313.21564ZM118.0375 313.21564Q118.0375 311.6844 118.35 310.7625Q118.6625 309.825 119.27187 309.325Q119.89687 308.825 120.83437 308.825Q121.52187 308.825 122.0375 309.10626Q122.56875 309.3875 122.9125 309.91876Q123.25625 310.4344 123.44375 311.1844Q123.63125 311.9344 123.63125 313.21564Q123.63125 314.73126 123.31875 315.65314Q123.02187 316.575 122.39687 317.09064Q121.7875 317.59064 120.83437 317.59064Q119.6 317.59064 118.88125 316.7Q118.0375 315.6375 118.0375 313.21564ZM119.11562 313.21564Q119.11562 315.325 119.61562 316.02814Q120.11562 316.73126 120.83437 316.73126Q121.56875 316.73126 122.05312 316.02814Q122.55312 315.325 122.55312 313.21564Q122.55312 311.09064 122.05312 310.40314Q121.56875 309.7 120.81875 309.7Q120.1 309.7 119.6625 310.3094Q119.11562 311.09064 119.11562 313.21564Z" fill-rule="nonzero"/><path fill="#000000" d="M173.57187 316.4344L173.57187 317.45L167.88437 317.45Q167.88437 317.075 168.00937 316.71564Q168.22812 316.1375 168.69687 315.575Q169.18124 315.0125 170.0875 314.27814Q171.49374 313.1219 171.97812 312.45Q172.47812 311.77814 172.47812 311.1844Q172.47812 310.5594 172.025 310.1375Q171.57187 309.7 170.85312 309.7Q170.0875 309.7 169.63437 310.15314Q169.18124 310.60626 169.16562 311.41876L168.0875 311.3094Q168.19687 310.09064 168.91562 309.46564Q169.65 308.825 170.88437 308.825Q172.11874 308.825 172.8375 309.5125Q173.55624 310.2 173.55624 311.21564Q173.55624 311.73126 173.3375 312.23126Q173.13437 312.71564 172.63437 313.27814Q172.15 313.825 171.025 314.77814Q170.07187 315.575 169.79062 315.8719Q169.525 316.15314 169.35312 316.4344L173.57187 316.4344ZM175.5875 317.45L175.5875 316.2469L176.79062 316.2469L176.79062 317.45Q176.79062 318.10626 176.55624 318.5125Q176.32187 318.9344 175.82187 319.15314L175.525 318.7Q175.85312 318.5594 176.00937 318.2625Q176.16562 317.98126 176.19687 317.45L175.5875 317.45ZM178.025 313.21564Q178.025 311.6844 178.3375 310.7625Q178.65 309.825 179.25937 309.325Q179.88437 308.825 180.82187 308.825Q181.50937 308.825 182.025 309.10626Q182.55624 309.3875 182.9 309.91876Q183.24374 310.4344 183.43124 311.1844Q183.61874 311.9344 183.61874 313.21564Q183.61874 314.73126 183.30624 315.65314Q183.00937 316.575 182.38437 317.09064Q181.775 317.59064 180.82187 317.59064Q179.5875 317.59064 178.86874 316.7Q178.025 315.6375 178.025 313.21564ZM179.10312 313.21564Q179.10312 315.325 179.60312 316.02814Q180.10312 316.73126 180.82187 316.73126Q181.55624 316.73126 182.04062 316.02814Q182.54062 315.325 182.54062 313.21564Q182.54062 311.09064 182.04062 310.40314Q181.55624 309.7 180.80624 309.7Q180.0875 309.7 179.65 310.3094Q179.10312 311.09064 179.10312 313.21564ZM185.025 313.21564Q185.025 311.6844 185.3375 310.7625Q185.65 309.825 186.25937 309.325Q186.88437 308.825 187.82187 308.825Q188.50937 308.825 189.025 309.10626Q189.55624 309.3875 189.9 309.91876Q190.24374 310.4344 190.43124 311.1844Q190.61874 311.9344 190.61874 313.21564Q190.61874 314.73126 190.30624 315.65314Q190.00937 316.575 189.38437 317.09064Q188.775 317.59064 187.82187 317.59064Q186.5875 317.59064 185.86874 316.7Q185.025 315.6375 185.025 313.21564ZM186.10312 313.21564Q186.10312 315.325 186.60312 316.02814Q187.10312 316.73126 187.82187 316.73126Q188.55624 316.73126 189.04062 316.02814Q189.54062 315.325 189.54062 313.21564Q189.54062 311.09064 189.04062 310.40314Q188.55624 309.7 187.80624 309.7Q187.0875 309.7 186.65 310.3094Q186.10312 311.09064 186.10312 313.21564Z" fill-rule="nonzero"/><path fill="#000000" d="M235.0125 315.1844L236.075 315.04376Q236.24687 315.9344 236.68437 316.34064Q237.12187 316.73126 237.74687 316.73126Q238.49687 316.73126 239.0125 316.21564Q239.52812 315.7 239.52812 314.9344Q239.52812 314.21564 239.04375 313.7469Q238.575 313.2625 237.84062 313.2625Q237.54375 313.2625 237.09062 313.3875L237.21562 312.45Q237.325 312.46564 237.3875 312.46564Q238.05937 312.46564 238.59062 312.1219Q239.1375 311.7625 239.1375 311.02814Q239.1375 310.45 238.74687 310.075Q238.35625 309.6844 237.73125 309.6844Q237.12187 309.6844 236.7 310.075Q236.29375 310.46564 236.18437 311.23126L235.12187 311.04376Q235.30937 309.9969 235.99687 309.41876Q236.68437 308.825 237.7 308.825Q238.40312 308.825 238.99687 309.1375Q239.59062 309.4344 239.90312 309.95Q240.21562 310.46564 240.21562 311.0594Q240.21562 311.60626 239.91875 312.075Q239.62187 312.52814 239.04375 312.79376Q239.79375 312.96564 240.21562 313.52814Q240.6375 314.075 240.6375 314.91876Q240.6375 316.04376 239.80937 316.825Q238.99687 317.60626 237.74687 317.60626Q236.62187 317.60626 235.87187 316.9344Q235.12187 316.2469 235.0125 315.1844ZM242.575 317.45L242.575 316.2469L243.77812 316.2469L243.77812 317.45Q243.77812 318.10626 243.54375 318.5125Q243.30937 318.9344 242.80937 319.15314L242.5125 318.7Q242.84062 318.5594 242.99687 318.2625Q243.15312 317.98126 243.18437 317.45L242.575 317.45ZM245.0125 313.21564Q245.0125 311.6844 245.325 310.7625Q245.6375 309.825 246.24687 309.325Q246.87187 308.825 247.80937 308.825Q248.49687 308.825 249.0125 309.10626Q249.54375 309.3875 249.8875 309.91876Q250.23125 310.4344 250.41875 311.1844Q250.60625 311.9344 250.60625 313.21564Q250.60625 314.73126 250.29375 315.65314Q249.99687 316.575 249.37187 317.09064Q248.7625 317.59064 247.80937 317.59064Q246.575 317.59064 245.85625 316.7Q245.0125 315.6375 245.0125 313.21564ZM246.09062 313.21564Q246.09062 315.325 246.59062 316.02814Q247.09062 316.73126 247.80937 316.73126Q248.54375 316.73126 249.02812 316.02814Q249.52812 315.325 249.52812 313.21564Q249.52812 311.09064 249.02812 310.40314Q248.54375 309.7 247.79375 309.7Q247.075 309.7 246.6375 310.3094Q246.09062 311.09064 246.09062 313.21564ZM252.0125 313.21564Q252.0125 311.6844 252.325 310.7625Q252.6375 309.825 253.24687 309.325Q253.87187 308.825 254.80937 308.825Q255.49687 308.825 256.0125 309.10626Q256.54376 309.3875 256.8875 309.91876Q257.23126 310.4344 257.41876 311.1844Q257.60626 311.9344 257.60626 313.21564Q257.60626 314.73126 257.29376 315.65314Q256.9969 316.575 256.3719 317.09064Q255.7625 317.59064 254.80937 317.59064Q253.575 317.59064 252.85625 316.7Q252.0125 315.6375 252.0125 313.21564ZM253.09062 313.21564Q253.09062 315.325 253.59062 316.02814Q254.09062 316.73126 254.80937 316.73126Q255.54375 316.73126 256.02814 316.02814Q256.52814 315.325 256.52814 313.21564Q256.52814 311.09064 256.02814 310.40314Q255.54375 309.7 254.79375 309.7Q254.075 309.7 253.6375 310.3094Q253.09062 311.09064 253.09062 313.21564Z" fill-rule="nonzero"/><path fill="#000000" d="M305.375 317.45L305.375 315.3875L301.65625 315.3875L301.65625 314.41876L305.57812 308.85626L306.4375 308.85626L306.4375 314.41876L307.59375 314.41876L307.59375 315.3875L306.4375 315.3875L306.4375 317.45L305.375 317.45ZM305.375 314.41876L305.375 310.5594L302.6875 314.41876L305.375 314.41876ZM309.5625 317.45L309.5625 316.2469L310.76562 316.2469L310.76562 317.45Q310.76562 318.10626 310.53125 318.5125Q310.29688 318.9344 309.79688 319.15314L309.5 318.7Q309.82812 318.5594 309.98438 318.2625Q310.14062 317.98126 310.17188 317.45L309.5625 317.45ZM312.0 313.21564Q312.0 311.6844 312.3125 310.7625Q312.625 309.825 313.23438 309.325Q313.85938 308.825 314.79688 308.825Q315.48438 308.825 316.0 309.10626Q316.53125 309.3875 316.875 309.91876Q317.21875 310.4344 317.40625 311.1844Q317.59375 311.9344 317.59375 313.21564Q317.59375 314.73126 317.28125 315.65314Q316.98438 316.575 316.35938 317.09064Q315.75 317.59064 314.79688 317.59064Q313.5625 317.59064 312.84375 316.7Q312.0 315.6375 312.0 313.21564ZM313.07812 313.21564Q313.07812 315.325 313.57812 316.02814Q314.07812 316.73126 314.79688 316.73126Q315.53125 316.73126 316.01562 316.02814Q316.51562 315.325 316.51562 313.21564Q316.51562 311.09064 316.01562 310.40314Q315.53125 309.7 314.78125 309.7Q314.0625 309.7 313.625 310.3094Q313.07812 311.09064 313.07812 313.21564ZM319.0 313.21564Q319.0 311.6844 319.3125 310.7625Q319.625 309.825 320.23438 309.325Q320.85938 308.825 321.79688 308.825Q322.48438 308.825 323.0 309.10626Q323.53125 309.3875 323.875 309.91876Q324.21875 310.4344 324.40625 311.1844Q324.59375 311.9344 324.59375 313.21564Q324.59375 314.73126 324.28125 315.65314Q323.98438 316.575 323.35938 317.09064Q322.75 317.59064 321.79688 317.59064Q320.5625 317.59064 319.84375 316.7Q319.0 315.6375 319.0 313.21564ZM320.07812 313.21564Q320.07812 315.325 320.57812 316.02814Q321.07812 316.73126 321.79688 316.73126Q322.53125 316.73126 323.01562 316.02814Q323.51562 315.325 323.51562 313.21564Q323.51562 311.09064 323.01562 310.40314Q322.53125 309.7 321.78125 309.7Q321.0625 309.7 320.625 310.3094Q320.07812 311.09064 320.07812 313.21564Z" fill-rule="nonzero"/><path fill="#000000" d="M368.9875 315.2L370.09686 315.10626Q370.22186 315.91876 370.65936 316.325Q371.1125 316.73126 371.7531 316.73126Q372.5031 316.73126 373.03436 316.15314Q373.5656 315.575 373.5656 314.6375Q373.5656 313.73126 373.05 313.21564Q372.55 312.6844 371.72186 312.6844Q371.22186 312.6844 370.8 312.91876Q370.39374 313.15314 370.15936 313.5125L369.175 313.3875L370.0031 308.98126L374.28436 308.98126L374.28436 309.98126L370.84686 309.98126L370.39374 312.29376Q371.15936 311.7469 372.0031 311.7469Q373.1281 311.7469 373.89374 312.52814Q374.675 313.3094 374.675 314.54376Q374.675 315.7 374.0031 316.5594Q373.175 317.59064 371.7531 317.59064Q370.58124 317.59064 369.83124 316.9344Q369.09686 316.27814 368.9875 315.2ZM376.55 317.45L376.55 316.2469L377.7531 316.2469L377.7531 317.45Q377.7531 318.10626 377.51874 318.5125Q377.28436 318.9344 376.78436 319.15314L376.4875 318.7Q376.8156 318.5594 376.97186 318.2625Q377.1281 317.98126 377.15936 317.45L376.55 317.45ZM378.9875 313.21564Q378.9875 311.6844 379.3 310.7625Q379.6125 309.825 380.22186 309.325Q380.84686 308.825 381.78436 308.825Q382.47186 308.825 382.9875 309.10626Q383.51874 309.3875 383.8625 309.91876Q384.20624 310.4344 384.39374 311.1844Q384.58124 311.9344 384.58124 313.21564Q384.58124 314.73126 384.26874 315.65314Q383.97186 316.575 383.34686 317.09064Q382.7375 317.59064 381.78436 317.59064Q380.55 317.59064 379.83124 316.7Q378.9875 315.6375 378.9875 313.21564ZM380.0656 313.21564Q380.0656 315.325 380.5656 316.02814Q381.0656 316.73126 381.78436 316.73126Q382.51874 316.73126 383.0031 316.02814Q383.5031 315.325 383.5031 313.21564Q383.5031 311.09064 383.0031 310.40314Q382.51874 309.7 381.76874 309.7Q381.05 309.7 380.6125 310.3094Q380.0656 311.09064 380.0656 313.21564ZM385.9875 313.21564Q385.9875 311.6844 386.3 310.7625Q386.6125 309.825 387.22186 309.325Q387.84686 308.825 388.78436 308.825Q389.47186 308.825 389.9875 309.10626Q390.51874 309.3875 390.8625 309.91876Q391.20624 310.4344 391.39374 311.1844Q391.58124 311.9344 391.58124 313.21564Q391.58124 314.73126 391.26874 315.65314Q390.97186 316.575 390.34686 317.09064Q389.7375 317.59064 388.78436 317.59064Q387.55 317.59064 386.83124 316.7Q385.9875 315.6375 385.9875 313.21564ZM387.0656 313.21564Q387.0656 315.325 387.5656 316.02814Q388.0656 316.73126 388.78436 316.73126Q389.51874 316.73126 390.0031 316.02814Q390.5031 315.325 390.5031 313.21564Q390.5031 311.09064 390.0031 310.40314Q389.51874 309.7 388.76874 309.7Q388.05 309.7 387.6125 310.3094Q387.0656 311.09064 387.0656 313.21564Z" fill-rule="nonzero"/><path fill="#000000" d="M441.44376 310.96564L440.39688 311.04376Q440.25626 310.41876 440.00626 310.1375Q439.56876 309.6844 438.94376 309.6844Q438.44376 309.6844 438.05313 309.96564Q437.56876 310.34064 437.27188 311.04376Q436.99063 311.73126 436.975 313.0125Q437.35 312.4344 437.89688 312.15314Q438.45938 311.8719 439.06876 311.8719Q440.11563 311.8719 440.85 312.65314Q441.6 313.4344 441.6 314.65314Q441.6 315.46564 441.24063 316.16876Q440.89688 316.85626 440.2875 317.23126Q439.67813 317.59064 438.9125 317.59064Q437.58438 317.59064 436.75626 316.6219Q435.92813 315.65314 435.92813 313.4344Q435.92813 310.9344 436.85 309.8094Q437.64688 308.825 439.00626 308.825Q440.02188 308.825 440.6625 309.40314Q441.31876 309.96564 441.44376 310.96564ZM437.14688 314.66876Q437.14688 315.21564 437.36563 315.71564Q437.6 316.2 438.00626 316.46564Q438.42813 316.73126 438.89688 316.73126Q439.55313 316.73126 440.0375 316.2Q440.52188 315.65314 440.52188 314.73126Q440.52188 313.84064 440.0375 313.325Q439.56876 312.8094 438.85 312.8094Q438.13126 312.8094 437.63126 313.325Q437.14688 313.84064 437.14688 314.66876ZM443.5375 317.45L443.5375 316.2469L444.74063 316.2469L444.74063 317.45Q444.74063 318.10626 444.50626 318.5125Q444.27188 318.9344 443.77188 319.15314L443.475 318.7Q443.80313 318.5594 443.95938 318.2625Q444.11563 317.98126 444.14688 317.45L443.5375 317.45ZM445.975 313.21564Q445.975 311.6844 446.2875 310.7625Q446.6 309.825 447.20938 309.325Q447.83438 308.825 448.77188 308.825Q449.45938 308.825 449.975 309.10626Q450.50626 309.3875 450.85 309.91876Q451.19376 310.4344 451.38126 311.1844Q451.56876 311.9344 451.56876 313.21564Q451.56876 314.73126 451.25626 315.65314Q450.95938 316.575 450.33438 317.09064Q449.725 317.59064 448.77188 317.59064Q447.5375 317.59064 446.81876 316.7Q445.975 315.6375 445.975 313.21564ZM447.05313 313.21564Q447.05313 315.325 447.55313 316.02814Q448.05313 316.73126 448.77188 316.73126Q449.50626 316.73126 449.99063 316.02814Q450.49063 315.325 450.49063 313.21564Q450.49063 311.09064 449.99063 310.40314Q449.50626 309.7 448.75626 309.7Q448.0375 309.7 447.6 310.3094Q447.05313 311.09064 447.05313 313.21564ZM452.975 313.21564Q452.975 311.6844 453.2875 310.7625Q453.6 309.825 454.20938 309.325Q454.83438 308.825 455.77188 308.825Q456.45938 308.825 456.975 309.10626Q457.50626 309.3875 457.85 309.91876Q458.19376 310.4344 458.38126 311.1844Q458.56876 311.9344 458.56876 313.21564Q458.56876 314.73126 458.25626 315.65314Q457.95938 316.575 457.33438 317.09064Q456.725 317.59064 455.77188 317.59064Q454.5375 317.59064 453.81876 316.7Q452.975 315.6375 452.975 313.21564ZM454.05313 313.21564Q454.05313 315.325 454.55313 316.02814Q455.05313 316.73126 455.77188 316.73126Q456.50626 316.73126 456.99063 316.02814Q457.49063 315.325 457.49063 313.21564Q457.49063 311.09064 456.99063 310.40314Q456.50626 309.7 455.75626 309.7Q455.0375 309.7 454.6 310.3094Q454.05313 311.09064 454.05313 313.21564Z" fill-rule="nonzero"/><path fill="#000000" d="M503.025 309.98126L503.025 308.96564L508.5875 308.96564L508.5875 309.79376Q507.775 310.66876 506.9625 312.1219Q506.16562 313.5594 505.72812 315.09064Q505.4 316.16876 505.32187 317.45L504.22812 317.45Q504.24374 316.4344 504.61874 314.9969Q505.00937 313.5594 505.7125 312.23126Q506.43124 310.90314 507.24374 309.98126L503.025 309.98126ZM510.525 317.45L510.525 316.2469L511.72812 316.2469L511.72812 317.45Q511.72812 318.10626 511.49374 318.5125Q511.25937 318.9344 510.75937 319.15314L510.4625 318.7Q510.79062 318.5594 510.94687 318.2625Q511.10312 317.98126 511.13437 317.45L510.525 317.45ZM512.9625 313.21564Q512.9625 311.6844 513.275 310.7625Q513.5875 309.825 514.1969 309.325Q514.8219 308.825 515.7594 308.825Q516.4469 308.825 516.9625 309.10626Q517.4938 309.3875 517.8375 309.91876Q518.1813 310.4344 518.3688 311.1844Q518.5563 311.9344 518.5563 313.21564Q518.5563 314.73126 518.2438 315.65314Q517.9469 316.575 517.3219 317.09064Q516.7125 317.59064 515.7594 317.59064Q514.525 317.59064 513.8063 316.7Q512.9625 315.6375 512.9625 313.21564ZM514.04065 313.21564Q514.04065 315.325 514.54065 316.02814Q515.04065 316.73126 515.7594 316.73126Q516.4938 316.73126 516.97815 316.02814Q517.47815 315.325 517.47815 313.21564Q517.47815 311.09064 516.97815 310.40314Q516.4938 309.7 515.7438 309.7Q515.025 309.7 514.5875 310.3094Q514.04065 311.09064 514.04065 313.21564ZM519.9625 313.21564Q519.9625 311.6844 520.275 310.7625Q520.5875 309.825 521.1969 309.325Q521.8219 308.825 522.7594 308.825Q523.4469 308.825 523.9625 309.10626Q524.4938 309.3875 524.8375 309.91876Q525.1813 310.4344 525.3688 311.1844Q525.5563 311.9344 525.5563 313.21564Q525.5563 314.73126 525.2438 315.65314Q524.9469 316.575 524.3219 317.09064Q523.7125 317.59064 522.7594 317.59064Q521.525 317.59064 520.8063 316.7Q519.9625 315.6375 519.9625 313.21564ZM521.04065 313.21564Q521.04065 315.325 521.54065 316.02814Q522.04065 316.73126 522.7594 316.73126Q523.4938 316.73126 523.97815 316.02814Q524.47815 315.325 524.47815 313.21564Q524.47815 311.09064 523.97815 310.40314Q523.4938 309.7 522.7438 309.7Q522.025 309.7 521.5875 310.3094Q521.04065 311.09064 521.04065 313.21564Z" fill-rule="nonzero"/><path fill="#000000" d="M570.0125 309.98126L570.0125 308.96564L575.575 308.96564L575.575 309.79376Q574.7625 310.66876 573.95 312.1219Q573.15314 313.5594 572.71564 315.09064Q572.3875 316.16876 572.3094 317.45L571.21564 317.45Q571.23126 316.4344 571.60626 314.9969Q571.9969 313.5594 572.7 312.23126Q573.41876 310.90314 574.23126 309.98126L570.0125 309.98126ZM577.5125 317.45L577.5125 316.2469L578.71564 316.2469L578.71564 317.45Q578.71564 318.10626 578.48126 318.5125Q578.2469 318.9344 577.7469 319.15314L577.45 318.7Q577.77814 318.5594 577.9344 318.2625Q578.09064 317.98126 578.1219 317.45L577.5125 317.45ZM579.95 315.2L581.0594 315.10626Q581.1844 315.91876 581.6219 316.325Q582.075 316.73126 582.71564 316.73126Q583.46564 316.73126 583.9969 316.15314Q584.52814 315.575 584.52814 314.6375Q584.52814 313.73126 584.0125 313.21564Q583.5125 312.6844 582.6844 312.6844Q582.1844 312.6844 581.7625 312.91876Q581.35626 313.15314 581.1219 313.5125L580.1375 313.3875L580.96564 308.98126L585.2469 308.98126L585.2469 309.98126L581.8094 309.98126L581.35626 312.29376Q582.1219 311.7469 582.96564 311.7469Q584.09064 311.7469 584.85626 312.52814Q585.6375 313.3094 585.6375 314.54376Q585.6375 315.7 584.96564 316.5594Q584.1375 317.59064 582.71564 317.59064Q581.54376 317.59064 580.79376 316.9344Q580.0594 316.27814 579.95 315.2ZM586.95 313.21564Q586.95 311.6844 587.2625 310.7625Q587.575 309.825 588.1844 309.325Q588.8094 308.825 589.7469 308.825Q590.4344 308.825 590.95 309.10626Q591.48126 309.3875 591.825 309.91876Q592.16876 310.4344 592.35626 311.1844Q592.54376 311.9344 592.54376 313.21564Q592.54376 314.73126 592.23126 315.65314Q591.9344 316.575 591.3094 317.09064Q590.7 317.59064 589.7469 317.59064Q588.5125 317.59064 587.79376 316.7Q586.95 315.6375 586.95 313.21564ZM588.02814 313.21564Q588.02814 315.325 588.52814 316.02814Q589.02814 316.73126 589.7469 316.73126Q590.48126 316.73126 590.96564 316.02814Q591.46564 315.325 591.46564 313.21564Q591.46564 311.09064 590.96564 310.40314Q590.48126 309.7 589.73126 309.7Q589.0125 309.7 588.575 310.3094Q588.02814 311.09064 588.02814 313.21564Z" fill-rule="nonzero"/><path fill="#757575" d="M20.096874 37.55L20.096874 23.2375L25.4875 23.2375Q26.925 23.2375 27.675 23.3625Q28.721874 23.55 29.440624 24.05Q30.159374 24.534374 30.58125 25.425Q31.01875 26.315624 31.01875 27.378124Q31.01875 29.20625 29.846874 30.471874Q28.690624 31.721874 25.659374 31.721874L21.9875 31.721874L21.9875 37.55L20.096874 37.55ZM21.9875 30.034374L25.690624 30.034374Q27.51875 30.034374 28.284374 29.3625Q29.065624 28.675 29.065624 27.425Q29.065624 26.534374 28.6125 25.89375Q28.159374 25.253124 27.425 25.05Q26.940624 24.925 25.64375 24.925L21.9875 24.925L21.9875 30.034374ZM39.971874 34.20625L41.784374 34.440624Q41.3625 36.01875 40.190624 36.909374Q39.034374 37.784374 37.221874 37.784374Q34.95625 37.784374 33.6125 36.39375Q32.284374 34.9875 32.284374 32.45625Q32.284374 29.83125 33.628124 28.39375Q34.971874 26.940624 37.128124 26.940624Q39.20625 26.940624 40.51875 28.3625Q41.846874 29.76875 41.846874 32.346874Q41.846874 32.503124 41.83125 32.815624L34.096874 32.815624Q34.190624 34.51875 35.065624 35.425Q35.940624 36.33125 37.2375 36.33125Q38.20625 36.33125 38.878124 35.83125Q39.565624 35.315624 39.971874 34.20625ZM34.190624 31.3625L39.9875 31.3625Q39.878124 30.065624 39.33125 29.409374Q38.4875 28.39375 37.14375 28.39375Q35.940624 28.39375 35.1125 29.20625Q34.284374 30.003124 34.190624 31.3625ZM43.221874 32.3625Q43.221874 29.4875 44.815624 28.096874Q46.159374 26.940624 48.08125 26.940624Q50.221874 26.940624 51.565624 28.346874Q52.925 29.753124 52.925 32.221874Q52.925 34.221874 52.33125 35.378124Q51.7375 36.51875 50.58125 37.159374Q49.440624 37.784374 48.08125 37.784374Q45.89375 37.784374 44.55 36.39375Q43.221874 34.9875 43.221874 32.3625ZM45.01875 32.3625Q45.01875 34.3625 45.878124 35.346874Q46.753124 36.33125 48.08125 36.33125Q49.39375 36.33125 50.253124 35.346874Q51.128124 34.346874 51.128124 32.3Q51.128124 30.378124 50.253124 29.39375Q49.378124 28.39375 48.08125 28.39375Q46.753124 28.39375 45.878124 29.39375Q45.01875 30.378124 45.01875 32.3625ZM54.8625 41.51875L54.8625 27.175L56.471874 27.175L56.471874 28.51875Q57.034374 27.7375 57.7375 27.346874Q58.45625 26.940624 59.471874 26.940624Q60.8 26.940624 61.815624 27.628124Q62.83125 28.315624 63.346874 29.565624Q63.878124 30.8 63.878124 32.284374Q63.878124 33.878124 63.3 35.159374Q62.7375 36.425 61.64375 37.1125Q60.55 37.784374 59.346874 37.784374Q58.471874 37.784374 57.76875 37.409374Q57.08125 37.034374 56.628124 36.471874L56.628124 41.51875L54.8625 41.51875ZM56.45625 32.425Q56.45625 34.425 57.26875 35.378124Q58.08125 36.33125 59.2375 36.33125Q60.409374 36.33125 61.2375 35.346874Q62.08125 34.3625 62.08125 32.26875Q62.08125 30.3 61.253124 29.315624Q60.440624 28.315624 59.315624 28.315624Q58.190624 28.315624 57.315624 29.378124Q56.45625 30.425 56.45625 32.425ZM65.83125 37.55L65.83125 23.2375L67.58125 23.2375L67.58125 37.55L65.83125 37.55ZM76.97188 34.20625L78.78438 34.440624Q78.3625 36.01875 77.19063 36.909374Q76.03438 37.784374 74.22188 37.784374Q71.95625 37.784374 70.6125 36.39375Q69.28438 34.9875 69.28438 32.45625Q69.28438 29.83125 70.62813 28.39375Q71.97188 26.940624 74.12813 26.940624Q76.20625 26.940624 77.51875 28.3625Q78.84688 29.76875 78.84688 32.346874Q78.84688 32.503124 78.83125 32.815624L71.09688 32.815624Q71.19063 34.51875 72.06563 35.425Q72.94063 36.33125 74.2375 36.33125Q75.20625 36.33125 75.87813 35.83125Q76.56563 35.315624 76.97188 34.20625ZM71.19063 31.3625L76.9875 31.3625Q76.87813 30.065624 76.33125 29.409374Q75.4875 28.39375 74.14375 28.39375Q72.94063 28.39375 72.1125 29.20625Q71.28438 30.003124 71.19063 31.3625ZM85.50313 33.08125L85.50313 31.659374L96.62813 31.659374L96.62813 33.08125L85.50313 33.08125ZM103.87813 27.175L109.84688 27.175L109.84688 28.628124L105.64375 28.628124L105.64375 37.55L103.87813 37.55L103.87813 27.175ZM110.8625 27.175L112.62813 27.175L112.62813 35.08125L117.50313 27.175L119.39375 27.175L119.39375 37.55L117.64375 37.55L117.64375 29.690624L112.76875 37.55L110.8625 37.55L110.8625 27.175ZM128.64375 33.753124L130.3625 33.971874Q130.08125 35.76875 128.90938 36.784374Q127.75313 37.784374 126.05 37.784374Q123.925 37.784374 122.62813 36.39375Q121.33125 35.003124 121.33125 32.409374Q121.33125 30.721874 121.87813 29.471874Q122.44063 28.20625 123.58125 27.58125Q124.72188 26.940624 126.06563 26.940624Q127.75313 26.940624 128.81563 27.8Q129.89375 28.659374 130.20625 30.221874L128.4875 30.4875Q128.25313 29.440624 127.62813 28.925Q127.00313 28.39375 126.12813 28.39375Q124.8 28.39375 123.97188 29.346874Q123.14375 30.3 123.14375 32.346874Q123.14375 34.440624 123.94063 35.39375Q124.7375 36.33125 126.03438 36.33125Q127.06563 36.33125 127.75313 35.70625Q128.45625 35.065624 128.64375 33.753124ZM130.925 27.175L139.34688 27.175L139.34688 28.628124L136.00313 28.628124L136.00313 37.55L134.26875 37.55L134.26875 28.628124L130.925 28.628124L130.925 27.175ZM140.22188 32.3625Q140.22188 29.4875 141.81563 28.096874Q143.15938 26.940624 145.08125 26.940624Q147.22188 26.940624 148.56563 28.346874Q149.925 29.753124 149.925 32.221874Q149.925 34.221874 149.33125 35.378124Q148.7375 36.51875 147.58125 37.159374Q146.44063 37.784374 145.08125 37.784374Q142.89375 37.784374 141.55 36.39375Q140.22188 34.9875 140.22188 32.3625ZM142.01875 32.3625Q142.01875 34.3625 142.87813 35.346874Q143.75313 36.33125 145.08125 36.33125Q146.39375 36.33125 147.25313 35.346874Q148.12813 34.346874 148.12813 32.3Q148.12813 30.378124 147.25313 29.39375Q146.37813 28.39375 145.08125 28.39375Q143.75313 28.39375 142.87813 29.39375Q142.01875 30.378124 142.01875 32.3625ZM151.87813 27.175L157.84688 27.175L157.84688 28.628124L153.64375 28.628124L153.64375 37.55L151.87813 37.55L151.87813 27.175ZM158.8625 41.51875L158.8625 27.175L160.47188 27.175L160.47188 28.51875Q161.03438 27.7375 161.7375 27.346874Q162.45625 26.940624 163.47188 26.940624Q164.8 26.940624 165.81563 27.628124Q166.83125 28.315624 167.34688 29.565624Q167.87813 30.8 167.87813 32.284374Q167.87813 33.878124 167.3 35.159374Q166.7375 36.425 165.64375 37.1125Q164.55 37.784374 163.34688 37.784374Q162.47188 37.784374 161.76875 37.409374Q161.08125 37.034374 160.62813 36.471874L160.62813 41.51875L158.8625 41.51875ZM160.45625 32.425Q160.45625 34.425 161.26875 35.378124Q162.08125 36.33125 163.2375 36.33125Q164.40938 36.33125 165.2375 35.346874Q166.08125 34.3625 166.08125 32.26875Q166.08125 30.3 165.25313 29.315624Q164.44063 28.315624 163.31563 28.315624Q162.19063 28.315624 161.31563 29.378124Q160.45625 30.425 160.45625 32.425ZM176.64375 36.26875Q175.65938 37.096874 174.75313 37.440624Q173.84688 37.784374 172.81563 37.784374Q171.1125 37.784374 170.19063 36.95625Q169.26875 36.1125 169.26875 34.815624Q169.26875 34.05 169.6125 33.425Q169.97188 32.8 170.53438 32.425Q171.09688 32.034374 171.8 31.83125Q172.31563 31.70625 173.3625 31.565624Q175.4875 31.315624 176.4875 30.971874Q176.50313 30.6125 176.50313 30.503124Q176.50313 29.440624 176.00313 28.9875Q175.33125 28.39375 174.00313 28.39375Q172.75313 28.39375 172.15938 28.83125Q171.58125 29.26875 171.3 30.378124L169.58125 30.14375Q169.81563 29.034374 170.34688 28.3625Q170.87813 27.675 171.89375 27.315624Q172.90938 26.940624 174.25313 26.940624Q175.58125 26.940624 176.40938 27.253124Q177.2375 27.565624 177.62813 28.05Q178.01875 28.51875 178.175 29.2375Q178.26875 29.690624 178.26875 30.8625L178.26875 33.20625Q178.26875 35.659374 178.37813 36.315624Q178.4875 36.95625 178.83125 37.55L176.9875 37.55Q176.72188 37.003124 176.64375 36.26875ZM176.4875 32.346874Q175.53438 32.7375 173.6125 33.003124Q172.53438 33.159374 172.08125 33.3625Q171.64375 33.55 171.39375 33.925Q171.14375 34.3 171.14375 34.76875Q171.14375 35.471874 171.675 35.940624Q172.20625 36.409374 173.2375 36.409374Q174.25313 36.409374 175.03438 35.971874Q175.83125 35.51875 176.20625 34.753124Q176.4875 34.14375 176.4875 32.9875L176.4875 32.346874ZM180.925 27.175L183.65938 27.175L186.37813 35.471874L189.40938 27.175L191.94063 27.175L191.94063 37.55L190.175 37.55L190.175 29.20625L187.1125 37.55L185.53438 37.55L182.64375 28.8L182.64375 37.55L180.925 37.55L180.925 27.175ZM194.925 27.175L197.65938 27.175L200.37813 35.471874L203.40938 27.175L205.94063 27.175L205.94063 37.55L204.175 37.55L204.175 29.20625L201.1125 37.55L199.53438 37.55L196.64375 28.8L196.64375 37.55L194.925 37.55L194.925 27.175ZM215.64375 36.26875Q214.65938 37.096874 213.75313 37.440624Q212.84688 37.784374 211.81563 37.784374Q210.1125 37.784374 209.19063 36.95625Q208.26875 36.1125 208.26875 34.815624Q208.26875 34.05 208.6125 33.425Q208.97188 32.8 209.53438 32.425Q210.09688 32.034374 210.8 31.83125Q211.31563 31.70625 212.3625 31.565624Q214.4875 31.315624 215.4875 30.971874Q215.50313 30.6125 215.50313 30.503124Q215.50313 29.440624 215.00313 28.9875Q214.33125 28.39375 213.00313 28.39375Q211.75313 28.39375 211.15938 28.83125Q210.58125 29.26875 210.3 30.378124L208.58125 30.14375Q208.81563 29.034374 209.34688 28.3625Q209.87813 27.675 210.89375 27.315624Q211.90938 26.940624 213.25313 26.940624Q214.58125 26.940624 215.40938 27.253124Q216.2375 27.565624 216.62813 28.05Q217.01875 28.51875 217.175 29.2375Q217.26875 29.690624 217.26875 30.8625L217.26875 33.20625Q217.26875 35.659374 217.37813 36.315624Q217.4875 36.95625 217.83125 37.55L215.9875 37.55Q215.72188 37.003124 215.64375 36.26875ZM215.4875 32.346874Q214.53438 32.7375 212.6125 33.003124Q211.53438 33.159374 211.08125 33.3625Q210.64375 33.55 210.39375 33.925Q210.14375 34.3 210.14375 34.76875Q210.14375 35.471874 210.675 35.940624Q211.20625 36.409374 212.2375 36.409374Q213.25313 36.409374 214.03438 35.971874Q214.83125 35.51875 215.20625 34.753124Q215.4875 34.14375 215.4875 32.9875L215.4875 32.346874Z" fill-rule="nonzero"/></svg>